<svg xmlns="http://www.w3.org/2000/svg"><symbol id="bookmark" viewBox="0 0 64 64"><defs><style>.cls-1{fill:#5c52a3}</style></defs><path d="M44.9 54.5a2 2 0 0 1-1.5-.67L32.58 41.49 21.76 53.82a2 2 0 0 1-2.21.55 2 2 0 0 1-1.29-1.87v-41a2 2 0 0 1 2-2H44.9a2 2 0 0 1 2 2v41a2 2 0 0 1-1.29 1.88 2.08 2.08 0 0 1-.71.12zm0-2zm-24.64-41v41l12.32-14 12.32 14v-41z" class="cls-1"/></symbol><symbol id="check" viewBox="0 0 64 64"><defs><style>.cls-1{fill:#5c52a3}</style></defs><path d="M32.42 41.31a1.09 1.09 0 0 1-.49-.13l-8.63-4.79a1 1 0 0 1-.38-1.39 1 1 0 0 1 1.35-.39L32.16 39l11.11-14a1 1 0 0 1 1.57 1.24L33.2 40.93a1 1 0 0 1-.78.38z" class="cls-1"/></symbol><symbol id="close" viewBox="0 0 64 64"><defs><style>.cls-1{fill:#5c52a3}</style></defs><path d="M25 42.64a1 1 0 0 1-.62-.22 1 1 0 0 1-.15-1.4l15.13-18.74a1 1 0 1 1 1.55 1.25L25.8 42.27a1 1 0 0 1-.8.37z" class="cls-1"/><path d="M41.34 42.24a1 1 0 0 1-.74-.32L24 24a1 1 0 0 1 1.47-1.36l16.6 17.92A1 1 0 0 1 42 42a1 1 0 0 1-.66.24z" class="cls-1"/></symbol><symbol id="filter" viewBox="0 0 64 64"><defs><style>.cls-1{fill:#fff}.cls-2{fill:#5c52a3}</style></defs><path d="M47.09 15.54H15.63L28.66 32l-.35 23.38 5.92-9.15.51-14.23 12.35-16.46z" class="cls-1"/><path d="M28.31 56.38a.92.92 0 0 1-.29 0 1 1 0 0 1-.71-1l.35-23-12.82-16.22a1 1 0 0 1 .79-1.62h31.46a1 1 0 0 1 .8 1.6L35.73 32.35l-.5 13.91a1 1 0 0 1-.16.51l-5.92 9.15a1 1 0 0 1-.84.46zM17.69 16.54l11.76 14.84a1 1 0 0 1 .21.64l-.3 19.89 3.88-6 .5-13.91a1 1 0 0 1 .2-.56l11.15-14.9z" class="cls-2"/></symbol><symbol id="bookmarked" viewBox="0 0 64 64"><defs><style>.cls-1{fill:#5c52a3;stroke:#5c52a3;stroke-miterlimit:10;stroke-width:2px}</style></defs><path d="M44.32 52.84a1 1 0 0 1-.75-.34L32 39.31 20.43 52.5a1 1 0 0 1-1.75-.66v-41a1 1 0 0 1 1-1h24.64a1 1 0 0 1 1 1v41a1 1 0 0 1-.65.93.84.84 0 0 1-.35.07z" class="cls-1"/></symbol><symbol id="history" viewBox="0 0 64 64"><defs><style>.cls-1{fill:#5c52a3}</style></defs><path d="M32.73 55.36a23.16 23.16 0 0 1-17.24-7.69L17 46.32a21.35 21.35 0 1 0-4.51-20.79l-1.91-.61a23.35 23.35 0 1 1 26.69 30 23.93 23.93 0 0 1-4.54.44z" class="cls-1"/><path d="M10.4 26.62a1 1 0 0 1-1-.87L8.05 15.66a1 1 0 0 1 .86-1.12 1 1 0 0 1 1.09.86l1.36 10.08a1 1 0 0 1-.85 1.13z" class="cls-1"/><path d="M10.4 26.62a1 1 0 0 1-.32-1.95l9.62-3.32a1 1 0 1 1 .65 1.89l-9.62 3.32a1 1 0 0 1-.33.06zm27.04 12.72a1 1 0 0 1-.65-.24l-5.44-4.65a1 1 0 0 1-.35-.76V21a1 1 0 0 1 2 0v12.2l5.09 4.35A1 1 0 0 1 38.2 39a1 1 0 0 1-.76.34z" class="cls-1"/></symbol><symbol id="left-arrow" viewBox="0 0 64 64"><defs><style>.cls-1{fill:#5c52a3}</style></defs><path d="M41.09 47.33a1 1 0 0 1-.71-.3L24.63 31a1 1 0 0 1 1.43-1.4l15.75 16a1 1 0 0 1 0 1.41 1 1 0 0 1-.72.32z" class="cls-1"/><path d="M25.35 31.33a1 1 0 0 1-.7-.29 1 1 0 0 1 0-1.41l15.75-16A1 1 0 0 1 41.81 15L26.06 31a1 1 0 0 1-.71.33z" class="cls-1"/></symbol><symbol id="navigation" viewBox="0 0 64 64"><defs><style>.cls-1{fill:#5c52a3}</style></defs><path d="M49.62 19.66H14.38a1 1 0 1 1 0-2h35.24a1 1 0 0 1 0 2zM37.36 30.11h-23a1 1 0 0 1 0-2h23a1 1 0 0 1 0 2zM32 40.56H14.38a1 1 0 0 1 0-2H32a1 1 0 0 1 0 2z" class="cls-1"/></symbol><symbol id="profile" viewBox="0 0 64 64"><defs><style>.cls-1{fill:#5c52a3}</style></defs><path d="M32.22 35.17a12.84 12.84 0 1 0-12.84-12.84 12.85 12.85 0 0 0 12.84 12.84zm10.84-12.84a10.84 10.84 0 1 1-10.84-10.84 10.86 10.86 0 0 1 10.84 10.84zm-10.52 15a19 19 0 0 0-19 19v1h38v-1a19 19 0 0 0-19-19zm-17 18a17 17 0 0 1 34 0z" class="cls-1"/></symbol><symbol id="right-arrow" viewBox="0 0 64 64"><defs><style>.cls-1{fill:#5c52a3}</style></defs><path d="M27.06 47.33a1 1 0 0 1-.7-.29 1 1 0 0 1 0-1.41l15.75-16A1 1 0 1 1 43.52 31L27.78 47a1 1 0 0 1-.72.33z" class="cls-1"/><path d="M42.81 31.33a1 1 0 0 1-.71-.3L26.35 15a1 1 0 0 1 1.43-1.41l15.74 16a1 1 0 0 1 0 1.41 1 1 0 0 1-.71.33z" class="cls-1"/></symbol><symbol id="search" viewBox="0 0 64 64"><defs><style>.cls-1{fill:#5c52a3}</style></defs><path d="M54.9 53.3L41.46 37.74A18.14 18.14 0 1 0 38 40.8l13.38 15.54a1 1 0 0 0 .69.34h.07a1 1 0 0 0 .65-.25l2-1.73a1 1 0 0 0 .11-1.4zm-24-11.72a16.35 16.35 0 1 1-6.22-32.1 16.62 16.62 0 0 1 3.12-.29 16.34 16.34 0 0 1 3.1 32.39zm21.33 12.7L39.61 39.65l.49-.42 12.64 14.62z" class="cls-1"/></symbol><symbol id="settings" viewBox="0 0 64 64"><defs><style>.cls-1{fill:#5c52a3}</style></defs><path d="M61 27.19h-5.15a23.75 23.75 0 0 0-2.55-6.3l4.17-3.2a1 1 0 0 0 .18-1.4l-5.76-7.52a1 1 0 0 0-1.41-.18l-5.21 4a23.53 23.53 0 0 0-7-2.95V3.57a1 1 0 0 0-1-1h-9.46a1 1 0 0 0-1 1v6.08a23.37 23.37 0 0 0-6 2.36l-4.69-5.39a1 1 0 0 0-.68-.34 1 1 0 0 0-.73.24l-7.13 6.24a1 1 0 0 0-.34.69 1 1 0 0 0 .25.72l5 5.69a23.58 23.58 0 0 0-3.19 7.33H3a1 1 0 0 0-1 1v9.47a1 1 0 0 0 1 1h6.27a24.21 24.21 0 0 0 2.42 6.08L7 48.33a1 1 0 0 0-.38.67 1 1 0 0 0 .2.74l5.77 7.51a1 1 0 0 0 1.4.18l5.62-4.31a23.9 23.9 0 0 0 7.19 3.09v5.17a1 1 0 0 0 1 1h9.47a1 1 0 0 0 1-1v-5.16a23.88 23.88 0 0 0 6.42-2.61l3.86 3.87a1 1 0 0 0 1.42 0l6.7-6.7a1 1 0 0 0 .29-.71 1 1 0 0 0-.29-.7l-3.76-3.76a23.67 23.67 0 0 0 2.93-7H61a1 1 0 0 0 1-1v-9.42a1 1 0 0 0-1-1zm-1 9.47h-5a1 1 0 0 0-1 .8 21.79 21.79 0 0 1-3.26 7.72 1 1 0 0 0 .12 1.27l3.63 3.62-5.29 5.29-3.72-3.72a1 1 0 0 0-1.24-.14 21.58 21.58 0 0 1-7.23 2.94 1 1 0 0 0-.8 1v5h-7.4v-5a1 1 0 0 0-.8-1 22.1 22.1 0 0 1-7.87-3.37 1 1 0 0 0-1.17 0l-5.4 4.14L9 49.31l4.59-3.52a1 1 0 0 0 .24-1.32 21.83 21.83 0 0 1-2.8-7 1 1 0 0 0-1-.8H4v-7.48h6.09a1 1 0 0 0 1-.79 21.75 21.75 0 0 1 3.49-8 1 1 0 0 0-.07-1.23l-4.86-5.56 5.63-4.92L19.87 14a1 1 0 0 0 1.27.19A21.93 21.93 0 0 1 28 11.42a1 1 0 0 0 .8-1V4.57h7.47v5.86a1 1 0 0 0 .8 1 21.82 21.82 0 0 1 7.68 3.24 1 1 0 0 0 1.17 0l5-3.83 4.55 5.93-4.09 3.14a1 1 0 0 0-.23 1.33 21.63 21.63 0 0 1 2.93 7.22 1 1 0 0 0 1 .79h5z" class="cls-1"/><path d="M32.22 18.85a14 14 0 1 0 14 14 14 14 0 0 0-14-14zm0 26a12 12 0 1 1 12-12 12 12 0 0 1-12 11.96z" class="cls-1"/></symbol></svg>