<svg id="Layer_1" data-name="Layer 1" xmlns="http://www.w3.org/2000/svg" viewBox="0 0 32 32"><defs><style>.cls-1{fill:#5d39d8;}</style></defs><title>logo-32</title><path class="cls-1" d="M.86,18.83V9.52L0,9.31V9.16H2v4.3a2.2,2.2,0,0,1,.39-.53,2.17,2.17,0,0,1,.52-.37,1.45,1.45,0,0,1,.74-.18,2.11,2.11,0,0,1,.8.16,2,2,0,0,1,.63.44,2.2,2.2,0,0,1,.43.67,2.46,2.46,0,0,1,.15.88v4.3l.85.21v.15H3.72V19l.79-.21v-4.3a2.49,2.49,0,0,0-.32-1.44,1,1,0,0,0-.75-.42,1,1,0,0,0-.62.2,2.34,2.34,0,0,0-.44.45A3.09,3.09,0,0,0,2,14v4.87l.79.21v.15H0V19Z"/><path class="cls-1" d="M7.52,18.83V13l-.86-.22V12.6h2v6.23l.86.21v.15H6.66V19Z"/><path class="cls-1" d="M12.6,22.56a2.93,2.93,0,0,0,1-.15,2.08,2.08,0,0,0,.72-.4,1.82,1.82,0,0,0,.45-.6,1.64,1.64,0,0,0,.16-.72,1.2,1.2,0,0,0-1.36-1.36H11.24A1.83,1.83,0,0,1,10,19a1.07,1.07,0,0,1-.21-1.4,3.94,3.94,0,0,1,.36-.45,6,6,0,0,1,.55-.4,2,2,0,0,1-.5-.46,2.16,2.16,0,0,1-.35-.6,2.26,2.26,0,0,1-.15-.87,2.38,2.38,0,0,1,.19-1,2.33,2.33,0,0,1,.54-.77,2.62,2.62,0,0,1,.81-.52,2.9,2.9,0,0,1,1-.19,2.52,2.52,0,0,1,.48,0,3.52,3.52,0,0,1,.41.1,2.35,2.35,0,0,1,.4.14,2.44,2.44,0,0,1,.27-.29,2,2,0,0,1,.36-.2,1.62,1.62,0,0,1,.52-.08,1.38,1.38,0,0,1,.76.18,1.7,1.7,0,0,1,.44.39,1.59,1.59,0,0,1,.23.57l-1.07.22a3.74,3.74,0,0,0-.13-.53,1.65,1.65,0,0,0-.2-.37.4.4,0,0,0-.32-.18.6.6,0,0,0-.29.08.78.78,0,0,0-.2.14.91.91,0,0,0-.15.21,2.2,2.2,0,0,1,.81.85,2.57,2.57,0,0,1,.26,1.16,2.38,2.38,0,0,1-.19,1,2.44,2.44,0,0,1-.54.77,2.55,2.55,0,0,1-.82.52,2.82,2.82,0,0,1-1,.18,2.26,2.26,0,0,1-.54-.05,2.21,2.21,0,0,1-.43-.12,1.76,1.76,0,0,1-.39-.19,2.53,2.53,0,0,0-.35.28,1.12,1.12,0,0,0-.26.27.54.54,0,0,0-.1.31.39.39,0,0,0,.2.35,1.47,1.47,0,0,0,.8.14h2.29a1.87,1.87,0,0,1,1.4.55,2.05,2.05,0,0,1,.53,1.47,2.6,2.6,0,0,1-.2,1,2.78,2.78,0,0,1-.58.82,2.84,2.84,0,0,1-.91.55,3.34,3.34,0,0,1-1.17.2,4.86,4.86,0,0,1-1.4-.18,2.9,2.9,0,0,1-1-.49,2,2,0,0,1-.77-1.62A1.16,1.16,0,0,1,9.59,20a.75.75,0,0,1,.15-.2l1.07.43a1.29,1.29,0,0,0-.07.21,1.33,1.33,0,0,0-.07.43,1.69,1.69,0,0,0,.5,1.25A2,2,0,0,0,12.6,22.56ZM12.31,17a1,1,0,0,0,.48-.12,1.19,1.19,0,0,0,.41-.4,2.21,2.21,0,0,0,.29-.69,3.76,3.76,0,0,0,.11-1,3.76,3.76,0,0,0-.11-1,2.21,2.21,0,0,0-.29-.69,1.26,1.26,0,0,0-.41-.39.94.94,0,0,0-.48-.13.9.9,0,0,0-.47.13,1.26,1.26,0,0,0-.41.39,2,2,0,0,0-.3.69,4.69,4.69,0,0,0,0,2,2,2,0,0,0,.3.69,1.19,1.19,0,0,0,.41.4A1,1,0,0,0,12.31,17Z"/><path class="cls-1" d="M16.54,18.83V9.52l-.86-.21V9.16h2v4.3a2.2,2.2,0,0,1,.39-.53,2.1,2.1,0,0,1,.51-.37,1.49,1.49,0,0,1,.75-.18,2,2,0,0,1,.79.16,1.92,1.92,0,0,1,.64.44,2,2,0,0,1,.42.67,2.46,2.46,0,0,1,.15.88v4.3l.86.21v.15H19.4V19l.79-.21v-4.3a2.49,2.49,0,0,0-.32-1.44,1,1,0,0,0-.76-.42,1,1,0,0,0-.61.2,2.74,2.74,0,0,0-.45.45,3.58,3.58,0,0,0-.37.64v4.87l.79.21v.15H15.68V19Z"/><path class="cls-1" d="M23.48,15.89a7.25,7.25,0,0,0,.14,1.53,3.6,3.6,0,0,0,.35,1,1.48,1.48,0,0,0,.51.54,1.19,1.19,0,0,0,.58.15,1.68,1.68,0,0,0,.7-.14,1.74,1.74,0,0,0,.58-.39,1.79,1.79,0,0,0,.43-.58,2.61,2.61,0,0,0,.22-.75h.21a2.4,2.4,0,0,1-.25.85,2.28,2.28,0,0,1-.49.68,2.08,2.08,0,0,1-.7.46,2.15,2.15,0,0,1-.85.16,2.32,2.32,0,0,1-1-.24,2.52,2.52,0,0,1-.86-.68,3.29,3.29,0,0,1-.61-1.11,5.22,5.22,0,0,1,0-3A3.49,3.49,0,0,1,23,13.28a2.6,2.6,0,0,1,.82-.67,2.2,2.2,0,0,1,2,0,2.6,2.6,0,0,1,.82.67,3.49,3.49,0,0,1,.56,1.09,4.72,4.72,0,0,1,.22,1.52Zm1.29-3.29a.73.73,0,0,0-.43.14,1.24,1.24,0,0,0-.4.48,3.38,3.38,0,0,0-.31.92,8.9,8.9,0,0,0-.15,1.47h2.58a8.9,8.9,0,0,0-.15-1.47,3.38,3.38,0,0,0-.31-.92,1.24,1.24,0,0,0-.4-.48A.73.73,0,0,0,24.77,12.6Z"/><path class="cls-1" d="M29.42,18.83l.86.21v.15H27.42V19l.86-.21V13l-.86-.22V12.6h2v1.72a4.74,4.74,0,0,1,.45-1,3,3,0,0,1,.56-.67,1.07,1.07,0,0,1,.78-.31,1.39,1.39,0,0,1,.3,0l.26.05.23.07-.43,1.07-.19-.1-.2-.08a1.15,1.15,0,0,0-.91.17,2,2,0,0,0-.47.44,2.47,2.47,0,0,0-.38.65Z"/><path class="cls-1" d="M8.5,11.22,8,10.46l-.44.76-.38.65V12H8.88v-.12Z"/></svg>