<svg id="Layer_1" data-name="Layer 1" xmlns="http://www.w3.org/2000/svg" viewBox="0 0 256 256"><defs><style>.cls-1{fill:#5d39d8;}</style></defs><title>logo-256</title><path class="cls-1" d="M6.87,150.62V76.17L0,74.45V73.31H16v34.36a16.15,16.15,0,0,1,3.09-4.24,18,18,0,0,1,4.12-3,12.34,12.34,0,0,1,6-1.37,15.71,15.71,0,0,1,11.45,4.75A15.63,15.63,0,0,1,44,109.21a19.71,19.71,0,0,1,1.2,7.05v34.36l6.88,1.72v1.15H29.78v-1.15l6.3-1.72V116.26q0-8.13-2.58-11.51c-1.71-2.25-3.72-3.38-6-3.38a7.8,7.8,0,0,0-4.93,1.6A20.21,20.21,0,0,0,19,106.52a26.35,26.35,0,0,0-3,5.16v38.94l6.3,1.72v1.15H0v-1.15Z"/><path class="cls-1" d="M60.13,150.62v-47l-6.87-1.72V100.8h16v49.82l6.87,1.72v1.15H53.26v-1.15Z"/><path class="cls-1" d="M100.8,180.52a23.16,23.16,0,0,0,7.67-1.2,17.47,17.47,0,0,0,5.79-3.27,14.28,14.28,0,0,0,3.6-4.81,13.58,13.58,0,0,0,1.26-5.73q0-10.87-10.88-10.88H89.92q-6.54,0-9.57-2.63a8.33,8.33,0,0,1-3-6.53,8.24,8.24,0,0,1,1.31-4.64,22.69,22.69,0,0,1,2.92-3.61A33,33,0,0,1,85.91,134a16.42,16.42,0,0,1-4-3.66,19.18,19.18,0,0,1-2.81-4.81,18.1,18.1,0,0,1-1.2-7,19,19,0,0,1,1.54-7.67,19.18,19.18,0,0,1,4.3-6.19,19.68,19.68,0,0,1,6.53-4.12,22.37,22.37,0,0,1,8.25-1.49,20.52,20.52,0,0,1,3.78.34,32.47,32.47,0,0,1,3.32.8,20.11,20.11,0,0,1,3.2,1.15A12.08,12.08,0,0,1,111,99.08a12.66,12.66,0,0,1,13.12-.86,12.69,12.69,0,0,1,3.49,3.15,11.87,11.87,0,0,1,1.83,4.58l-8.59,1.72a22.88,22.88,0,0,0-1-4.24,11.44,11.44,0,0,0-1.6-3,3.08,3.08,0,0,0-2.52-1.37,4.63,4.63,0,0,0-2.29.57,6.9,6.9,0,0,0-1.61,1.15,6.74,6.74,0,0,0-1.26,1.71,16.89,16.89,0,0,1,6.47,6.76,19.91,19.91,0,0,1,2.12,9.28,18.91,18.91,0,0,1-5.84,13.86,19.68,19.68,0,0,1-6.53,4.12A22.15,22.15,0,0,1,98.51,138a21.51,21.51,0,0,1-4.36-.4,22.23,22.23,0,0,1-3.43-1,12.9,12.9,0,0,1-3.1-1.49,21.25,21.25,0,0,0-2.86,2.18,9.88,9.88,0,0,0-2,2.17A4.4,4.4,0,0,0,81.9,142a3.27,3.27,0,0,0,1.6,2.81c1.07.72,3.21,1.09,6.42,1.09h18.32a14.9,14.9,0,0,1,11.17,4.41q4.29,4.41,4.3,11.74a19.53,19.53,0,0,1-1.67,8.07,20.15,20.15,0,0,1-4.63,6.53,21.59,21.59,0,0,1-7.22,4.41,26.36,26.36,0,0,1-9.39,1.6,38.71,38.71,0,0,1-11.17-1.43,23.16,23.16,0,0,1-7.85-3.89,16,16,0,0,1-4.64-5.79,16.87,16.87,0,0,1-1.54-7.21,9.7,9.7,0,0,1,.34-2.69,9.22,9.22,0,0,1,.8-2,6.22,6.22,0,0,1,1.15-1.6l8.59,3.43a11.19,11.19,0,0,0-.57,1.72,10.62,10.62,0,0,0-.58,3.44,13.17,13.17,0,0,0,4.07,10Q93.47,180.52,100.8,180.52ZM98.51,136.3a8,8,0,0,0,3.78-1,9.64,9.64,0,0,0,3.32-3.15,17.6,17.6,0,0,0,2.35-5.55,38.83,38.83,0,0,0,0-16.16,16.84,16.84,0,0,0-2.35-5.49,10.24,10.24,0,0,0-3.32-3.15,7.45,7.45,0,0,0-7.56,0A10.17,10.17,0,0,0,91.4,105a16.63,16.63,0,0,0-2.34,5.49,38.39,38.39,0,0,0,0,16.16,17.37,17.37,0,0,0,2.34,5.55,9.58,9.58,0,0,0,3.33,3.15A7.94,7.94,0,0,0,98.51,136.3Z"/><path class="cls-1" d="M132.3,150.62V76.17l-6.88-1.72V73.31h16v34.36a16.15,16.15,0,0,1,3.09-4.24,18,18,0,0,1,4.12-3,12.34,12.34,0,0,1,6-1.37,15.49,15.49,0,0,1,14.83,10.13,19.49,19.49,0,0,1,1.21,7.05v34.36l6.87,1.72v1.15H155.2v-1.15l6.3-1.72V116.26q0-8.13-2.57-11.51t-6-3.38A7.75,7.75,0,0,0,148,103a19.55,19.55,0,0,0-3.55,3.55,25.89,25.89,0,0,0-3,5.16v38.94l6.3,1.72v1.15H125.42v-1.15Z"/><path class="cls-1" d="M187.85,127.14a57.78,57.78,0,0,0,1.09,12.26,27.4,27.4,0,0,0,2.86,8,11.25,11.25,0,0,0,4,4.29,9.31,9.31,0,0,0,4.64,1.26,14,14,0,0,0,5.61-1.14,16.13,16.13,0,0,0,4.7-3.1,15.75,15.75,0,0,0,3.38-4.69,20.72,20.72,0,0,0,1.77-6h1.72a21.23,21.23,0,0,1-2,6.82,18.88,18.88,0,0,1-4,5.44,18,18,0,0,1-5.55,3.61,17.63,17.63,0,0,1-6.82,1.31,18.68,18.68,0,0,1-8.25-1.89,21.08,21.08,0,0,1-6.92-5.49,27.23,27.23,0,0,1-4.82-8.82,36.83,36.83,0,0,1-1.77-11.86A39,39,0,0,1,179.26,115a27.37,27.37,0,0,1,4.52-8.76,19.24,19.24,0,0,1,6.53-5.33,17.73,17.73,0,0,1,15.69,0,19.24,19.24,0,0,1,6.53,5.33,27.58,27.58,0,0,1,4.53,8.76,39.32,39.32,0,0,1,1.71,12.14Zm10.31-26.34a6.42,6.42,0,0,0-3.44,1.08,10.21,10.21,0,0,0-3.21,3.84,27.89,27.89,0,0,0-2.46,7.39,69.32,69.32,0,0,0-1.2,11.74h20.62a70.24,70.24,0,0,0-1.21-11.74,27.89,27.89,0,0,0-2.46-7.39,10.12,10.12,0,0,0-3.21-3.84A6.39,6.39,0,0,0,198.16,100.8Z"/><path class="cls-1" d="M235.38,150.62l6.88,1.72v1.15H219.35v-1.15l6.87-1.72v-47l-6.87-1.72V100.8h16v13.74a42,42,0,0,1,3.55-7.67,25,25,0,0,1,4.47-5.39,9,9,0,0,1,6.3-2.4,17,17,0,0,1,2.41.17c.76.11,1.45.25,2.06.4s1.29.42,1.83.57l-3.44,8.59c-.45-.23-.95-.49-1.49-.8a9.67,9.67,0,0,0-1.66-.63,7.05,7.05,0,0,0-2-.28,9,9,0,0,0-5.27,1.6,16.76,16.76,0,0,0-3.78,3.55,20.64,20.64,0,0,0-3,5.15Z"/><path class="cls-1" d="M68,89.78l-3.68-6.1-3.52,6.1-3,5.15v.94H71v-1Z"/></svg>