<svg id="Layer_1" data-name="Layer 1" xmlns="http://www.w3.org/2000/svg" viewBox="0 0 64 64"><defs><style>.cls-1{fill:#5d39d8;}</style></defs><title>logo-64</title><path class="cls-1" d="M1.72,37.66V19L0,18.61v-.28H4v8.59a4.1,4.1,0,0,1,.77-1.06,4.49,4.49,0,0,1,1-.75,3.06,3.06,0,0,1,1.49-.34,4,4,0,0,1,1.59.31,4.06,4.06,0,0,1,1.28.88A3.91,3.91,0,0,1,11,27.3a5,5,0,0,1,.3,1.76v8.6l1.72.43v.28H7.45v-.28L9,37.66v-8.6a4.84,4.84,0,0,0-.64-2.87,1.86,1.86,0,0,0-1.51-.85,2,2,0,0,0-1.23.4,5.35,5.35,0,0,0-.89.89A6.69,6.69,0,0,0,4,27.92v9.74l1.57.43v.28H0v-.28Z"/><path class="cls-1" d="M15,37.66V25.91l-1.71-.42V25.2h4V37.66l1.72.43v.28H13.32v-.28Z"/><path class="cls-1" d="M25.2,45.13a5.77,5.77,0,0,0,1.92-.3A4.21,4.21,0,0,0,28.56,44a3.54,3.54,0,0,0,.91-1.2,3.41,3.41,0,0,0,.31-1.43,2.4,2.4,0,0,0-2.72-2.72H22.48A3.57,3.57,0,0,1,20.09,38a2.16,2.16,0,0,1-.43-2.79,5,5,0,0,1,.73-.9,7.71,7.71,0,0,1,1.09-.81,4,4,0,0,1-1-.91,5.14,5.14,0,0,1-.7-1.21,4.48,4.48,0,0,1-.3-1.74,4.71,4.71,0,0,1,.39-1.92,4.78,4.78,0,0,1,1.07-1.55,5,5,0,0,1,1.63-1,5.56,5.56,0,0,1,2.07-.37,4.83,4.83,0,0,1,.94.09,5.62,5.62,0,0,1,.83.2,4.42,4.42,0,0,1,.8.28,3.29,3.29,0,0,1,.55-.57,2.81,2.81,0,0,1,.71-.4,2.68,2.68,0,0,1,1-.17,3,3,0,0,1,1.54.35,3.37,3.37,0,0,1,.87.79,3.13,3.13,0,0,1,.46,1.15l-2.15.43A5.48,5.48,0,0,0,30,25.86a2.71,2.71,0,0,0-.4-.75.75.75,0,0,0-.63-.34,1.2,1.2,0,0,0-.57.14,1.73,1.73,0,0,0-.4.29,1.6,1.6,0,0,0-.32.43,4.17,4.17,0,0,1,1.62,1.69,5,5,0,0,1,.53,2.32,4.78,4.78,0,0,1-.39,1.92,4.59,4.59,0,0,1-1.07,1.54,4.82,4.82,0,0,1-1.63,1,5.55,5.55,0,0,1-2.06.38,6,6,0,0,1-1.09-.1,5.22,5.22,0,0,1-.86-.25,3.05,3.05,0,0,1-.77-.37,5.2,5.2,0,0,0-.72.54,2.62,2.62,0,0,0-.5.55,1.14,1.14,0,0,0-.22.63.83.83,0,0,0,.41.7,3.16,3.16,0,0,0,1.6.27h4.58a3.72,3.72,0,0,1,2.79,1.1,4,4,0,0,1,1.08,2.94,4.87,4.87,0,0,1-.42,2,5.06,5.06,0,0,1-1.16,1.63,5.28,5.28,0,0,1-1.8,1.1,6.55,6.55,0,0,1-2.35.4,10,10,0,0,1-2.79-.35,5.71,5.71,0,0,1-2-1,3.88,3.88,0,0,1-1.16-1.44,4.23,4.23,0,0,1-.39-1.81,2.31,2.31,0,0,1,.09-.67,1.8,1.8,0,0,1,.2-.5,1.3,1.3,0,0,1,.28-.4l2.15.86a1.81,1.81,0,0,0-.14.43,2.54,2.54,0,0,0-.15.85,3.3,3.3,0,0,0,1,2.5A4,4,0,0,0,25.2,45.13Zm-.57-11.05a1.89,1.89,0,0,0,.94-.25,2.34,2.34,0,0,0,.83-.78A4.35,4.35,0,0,0,27,31.66a8.53,8.53,0,0,0,.21-2,8.41,8.41,0,0,0-.21-2,4.19,4.19,0,0,0-.59-1.38,2.54,2.54,0,0,0-.83-.78,1.81,1.81,0,0,0-.94-.26,1.84,1.84,0,0,0-.95.26,2.64,2.64,0,0,0-.83.78,4.41,4.41,0,0,0-.59,1.38,8.41,8.41,0,0,0-.21,2,8.53,8.53,0,0,0,.21,2,4.58,4.58,0,0,0,.59,1.39,2.43,2.43,0,0,0,.83.78A1.93,1.93,0,0,0,24.63,34.08Z"/><path class="cls-1" d="M33.07,37.66V19l-1.71-.43v-.28h4v8.59a4.14,4.14,0,0,1,.78-1.06,4.28,4.28,0,0,1,1-.75,3.06,3.06,0,0,1,1.49-.34A3.86,3.86,0,0,1,41.52,26a3.93,3.93,0,0,1,.85,1.34,5,5,0,0,1,.3,1.76v8.6l1.71.43v.28H38.8v-.28l1.58-.43v-8.6a4.83,4.83,0,0,0-.65-2.87,1.85,1.85,0,0,0-1.5-.85,2,2,0,0,0-1.23.4,5,5,0,0,0-.89.89,6.23,6.23,0,0,0-.75,1.29v9.74l1.58.43v.28H31.36v-.28Z"/><path class="cls-1" d="M47,31.79a14.58,14.58,0,0,0,.27,3.06,7.13,7.13,0,0,0,.72,2,2.82,2.82,0,0,0,1,1.07,2.33,2.33,0,0,0,1.16.32,3.52,3.52,0,0,0,1.41-.29,4.17,4.17,0,0,0,1.17-.77A4.07,4.07,0,0,0,53.53,36,5.1,5.1,0,0,0,54,34.51h.43a5.67,5.67,0,0,1-.5,1.7,4.86,4.86,0,0,1-1,1.36,4.62,4.62,0,0,1-1.39.9,4.37,4.37,0,0,1-1.7.33,4.75,4.75,0,0,1-2.07-.47A5.25,5.25,0,0,1,46,37a6.72,6.72,0,0,1-1.2-2.2,9.07,9.07,0,0,1-.45-3,10,10,0,0,1,.43-3A6.85,6.85,0,0,1,46,26.56a4.7,4.7,0,0,1,1.63-1.33,4.41,4.41,0,0,1,3.92,0,4.79,4.79,0,0,1,1.63,1.33,6.64,6.64,0,0,1,1.13,2.19,9.7,9.7,0,0,1,.43,3Zm2.58-6.59a1.61,1.61,0,0,0-.86.27,2.49,2.49,0,0,0-.8,1,6.75,6.75,0,0,0-.62,1.85,17.79,17.79,0,0,0-.3,2.93h5.16a17.79,17.79,0,0,0-.3-2.93,7.1,7.1,0,0,0-.62-1.85,2.58,2.58,0,0,0-.8-1A1.61,1.61,0,0,0,49.54,25.2Z"/><path class="cls-1" d="M58.85,37.66l1.71.43v.28H54.84v-.28l1.71-.43V25.91l-1.71-.42V25.2h4v3.44a10,10,0,0,1,.88-1.92,6.29,6.29,0,0,1,1.12-1.35,2.26,2.26,0,0,1,1.58-.6,3.94,3.94,0,0,1,.6,0,5.13,5.13,0,0,1,.51.1l.46.15-.86,2.14-.37-.2a2.52,2.52,0,0,0-.42-.15,1.69,1.69,0,0,0-.5-.08,2.28,2.28,0,0,0-1.31.4,4.29,4.29,0,0,0-.95.89,4.82,4.82,0,0,0-.74,1.29Z"/><path class="cls-1" d="M17,22.44l-.92-1.52-.88,1.52-.74,1.29V24h3.31v-.25Z"/></svg>